# xmcd CD database file
# Copyright (C) 1993-1998 Ti Kan
#
# Track frame offsets:
#	150
#	14282
#	28192
#	41520
#	60640
#	74247
#	98850
#	111202
#	125695
#	142877
#	156807
#	174067
#	197402
#	207280
#	222050
#	239335
#
# Disc length: 3378 seconds
#
# Revision: 1
# Processed by: cddbd v1.4b41PL1 Copyright (c) Steve Scherf et al.
# Submitted via: CDValet v3.01 - Copyright (c) 1997 Greg Leichner
#
DISCID=e00d3010
DTITLE=Taiguara - Meus Momentos - Taiguara
DYEAR=1900
DGENRE=
TTITLE0=Gente Humilde
TTITLE1=Hoje
TTITLE2=Viagem
TTITLE3=Universo No Teu Corpo
TTITLE4=Modinha
TTITLE5=Helena, Helena, Helena
TTITLE6=Preludio N' 2 ( Paz Do Meu Amor )
TTITLE7=Teu Sonho Nao Acabou
TTITLE8=O Velho E O Novo 
TTITLE9=Que As Crianças Cantem Livres 
TTITLE10=Berço De Marcela
TTITLE11=Momento Do Amor
TTITLE12=Castigo
TTITLE13=Piano E Viola
TTITLE14=Carne E Osso
TTITLE15=Amanda
EXTD=
EXTT0=
EXTT1=
EXTT2=
EXTT3=
EXTT4=
EXTT5=
EXTT6=
EXTT7=
EXTT8=
EXTT9=
EXTT10=
EXTT11=
EXTT12=
EXTT13=
EXTT14=
EXTT15=
PLAYORDER=
